<svg width="123" height="123" viewBox="0 0 123 123" fill="none" xmlns="http://www.w3.org/2000/svg">
<path d="M61.4317 114.709C92.3598 114.709 117.432 110.165 117.432 104.559C117.432 98.9535 92.3598 94.4093 61.4317 94.4093C30.5036 94.4093 5.4314 98.9535 5.4314 104.559C5.4314 110.165 30.5036 114.709 61.4317 114.709Z" fill="#DBE5A3"/>
<path d="M60.4705 104.787C70.5664 104.787 78.7508 102.941 78.7508 100.664C78.7508 98.3872 70.5664 96.5413 60.4705 96.5413C50.3746 96.5413 42.1902 98.3872 42.1902 100.664C42.1902 102.941 50.3746 104.787 60.4705 104.787Z" fill="#C9D887"/>
<path d="M18.8407 98.9501C18.8407 98.9501 16.5766 97.1153 17.6813 95.4503C18.786 93.7852 21.3861 94.8558 21.3861 94.8558C21.3861 94.8558 20.5365 91.3833 23.5363 90.1351C26.5362 88.8869 30.2364 90.2365 31.2808 92.4858C32.8809 92.086 36.3306 92.66 35.0801 96.7725C29.0861 98.4865 18.8407 98.9501 18.8407 98.9501Z" fill="#DBE5A3"/>
<path d="M94.5347 96.7726C94.5347 96.7726 93.9357 94.8251 94.7363 94.8558C95.5369 94.8866 96.0859 95.8136 96.0859 95.8136C96.0859 95.8136 96.8831 94.3741 97.9366 94.9298C98.99 95.4856 97.4366 97.2486 97.4366 97.2486L94.5347 96.7726Z" fill="#DBE5A3"/>
<path d="M18.7323 103.698C18.2768 103.822 17.6823 102.749 17.6812 102.264C17.6812 101.659 18.9339 101.426 19.2585 101.905C19.5831 102.385 19.1879 103.575 18.7323 103.698Z" fill="#FFEFCA"/>
<path d="M18.8565 103.874C18.5923 103.482 19.4145 102.572 19.8724 102.413C20.4418 102.216 21.0716 103.325 20.7231 103.789C20.3746 104.254 19.1207 104.264 18.8565 103.874Z" fill="#FFEFCA"/>
<path d="M18.7324 104.047C19.016 103.671 20.1435 104.153 20.4408 104.535C20.812 105.014 19.967 105.964 19.4158 105.788C18.8645 105.611 18.45 104.424 18.7324 104.047Z" fill="#FFEFCA"/>
<path d="M18.5274 103.981C18.975 104.127 18.885 105.347 18.6185 105.756C18.2871 106.263 17.1129 105.771 17.1038 105.187C17.0947 104.602 18.0787 103.838 18.5274 103.981Z" fill="#FFEFCA"/>
<path d="M18.5194 103.771C18.5194 104.242 17.3395 104.553 16.8692 104.433C16.2826 104.283 16.368 103.014 16.9136 102.817C17.4591 102.62 18.5137 103.297 18.5194 103.771Z" fill="#FFEFCA"/>
<path d="M18.6731 104.519C19.0304 104.519 19.32 104.23 19.32 103.872C19.32 103.515 19.0304 103.225 18.6731 103.225C18.3159 103.225 18.0262 103.515 18.0262 103.872C18.0262 104.23 18.3159 104.519 18.6731 104.519Z" fill="#FFCFC5"/>
<path d="M102.208 98.1472C101.737 98.1324 101.478 96.9331 101.62 96.4696C101.795 95.8899 103.059 96.0311 103.232 96.5835C103.405 97.1358 102.68 98.162 102.208 98.1472Z" fill="#FFEFCA"/>
<path d="M102.272 98.3499C102.133 97.8943 103.183 97.2668 103.67 97.2497C104.274 97.2281 104.55 98.4695 104.083 98.8134C103.616 99.1573 102.415 98.8009 102.272 98.3499Z" fill="#FFEFCA"/>
<path d="M102.106 98.4797C102.487 98.203 103.426 98.9922 103.6 99.4443C103.817 100.014 102.73 100.674 102.254 100.343C101.778 100.012 101.724 98.7576 102.106 98.4797Z" fill="#FFEFCA"/>
<path d="M101.93 98.3613C102.317 98.6323 101.874 99.7758 101.501 100.087C101.036 100.475 100.057 99.663 100.216 99.105C100.376 98.5469 101.542 98.0902 101.93 98.3613Z" fill="#FFEFCA"/>
<path d="M101.983 98.154C101.851 98.6095 100.626 98.5594 100.211 98.3077C99.6936 97.9934 100.145 96.8033 100.723 96.7737C101.302 96.744 102.114 97.7007 101.983 98.154Z" fill="#FFEFCA"/>
<path d="M102.1 98.9432C102.458 98.9432 102.747 98.6536 102.747 98.2964C102.747 97.9391 102.458 97.6495 102.1 97.6495C101.743 97.6495 101.453 97.9391 101.453 98.2964C101.453 98.6536 101.743 98.9432 102.1 98.9432Z" fill="#FFCFC5"/>
<path d="M92.0973 103.793C92.681 103.793 93.1542 103.56 93.1542 103.272C93.1542 102.985 92.681 102.752 92.0973 102.752C91.5136 102.752 91.0404 102.985 91.0404 103.272C91.0404 103.56 91.5136 103.793 92.0973 103.793Z" fill="#C9D887"/>
<path d="M32.3967 101.185C32.9804 101.185 33.4536 100.952 33.4536 100.664C33.4536 100.377 32.9804 100.144 32.3967 100.144C31.813 100.144 31.3398 100.377 31.3398 100.664C31.3398 100.952 31.813 101.185 32.3967 101.185Z" fill="#C9D887"/>
<path d="M68.2649 110.766C68.8486 110.766 69.3218 110.533 69.3218 110.246C69.3218 109.958 68.8486 109.725 68.2649 109.725C67.6812 109.725 67.208 109.958 67.208 110.246C67.208 110.533 67.6812 110.766 68.2649 110.766Z" fill="#C9D887"/>
<path d="M41.2995 107.669C41.7033 107.669 42.0307 107.508 42.0307 107.31C42.0307 107.111 41.7033 106.95 41.2995 106.95C40.8957 106.95 40.5684 107.111 40.5684 107.31C40.5684 107.508 40.8957 107.669 41.2995 107.669Z" fill="#FFEFCA"/>
<path d="M85.9292 98.3738C86.333 98.3738 86.6603 98.2127 86.6603 98.0139C86.6603 97.8151 86.333 97.654 85.9292 97.654C85.5253 97.654 85.198 97.8151 85.198 98.0139C85.198 98.2127 85.5253 98.3738 85.9292 98.3738Z" fill="#FFEFCA"/>
<path d="M88.15 108.724C88.5538 108.724 88.8812 108.563 88.8812 108.364C88.8812 108.165 88.5538 108.004 88.15 108.004C87.7462 108.004 87.4188 108.165 87.4188 108.364C87.4188 108.563 87.7462 108.724 88.15 108.724Z" fill="#FFEFCA"/>
<path d="M50.9698 65.2515C50.9698 65.2515 46.0532 68.011 41.6309 69.2376C39.2222 69.905 35.1142 70.0724 34.8329 71.3377C34.3033 73.7305 41.4555 75.3694 48.175 72.4333C51.3035 69.7364 50.9698 65.2515 50.9698 65.2515Z" fill="#F7DBAA"/>
<path d="M49.504 95.4503C50.0877 95.4503 50.5609 95.2173 50.5609 94.9298C50.5609 94.6424 50.0877 94.4093 49.504 94.4093C48.9203 94.4093 48.4471 94.6424 48.4471 94.9298C48.4471 95.2173 48.9203 95.4503 49.504 95.4503Z" fill="#C9D887"/>
<path d="M70.5166 32.7362C75.9548 34.7361 82.2278 41.6503 82.4351 51.3878C82.6424 61.1253 75.2168 69.2934 61.8417 68.1864C48.035 67.0475 43.9315 62.0307 42.1959 55.6313C40.4602 49.2319 42.5763 40.877 49.6727 35.4866C55.9468 30.7238 63.919 30.3104 70.5166 32.7362Z" fill="#FFEFCA"/>
<path d="M77.2235 37.2622C76.055 37.5788 74.5278 34.8284 74.5266 33.5836C74.5266 32.0313 77.7337 31.4333 78.5708 32.6633C79.4079 33.8933 78.392 36.9467 77.2235 37.2622Z" fill="#BBB9F9"/>
<path d="M77.5413 37.7098C76.8579 36.7064 78.9706 34.3705 80.1482 33.9662C81.6162 33.4617 83.2232 36.3044 82.3292 37.4968C81.4351 38.6892 78.2189 38.7131 77.5413 37.7098Z" fill="#BBB9F9"/>
<path d="M77.2167 38.1528C77.9467 37.187 80.8383 38.4238 81.6025 39.4056C82.5558 40.631 80.3862 43.0705 78.9706 42.6127C77.5549 42.1549 76.4912 39.1208 77.2167 38.1528Z" fill="#BBB9F9"/>
<path d="M76.6962 37.9968C77.8453 38.3737 77.613 41.5114 76.9308 42.5523C76.08 43.8506 73.0688 42.5888 73.0438 41.1014C73.0187 39.614 75.5459 37.6198 76.6962 37.9968Z" fill="#BBB9F9"/>
<path d="M76.6757 37.4478C76.6916 38.6585 73.6474 39.4545 72.4424 39.1459C70.9379 38.7621 71.1566 35.5015 72.5563 34.9992C73.956 34.497 76.6597 36.2383 76.6757 37.4478Z" fill="#BBB9F9"/>
<path d="M77.0698 39.3691C77.9869 39.3691 78.7303 38.6257 78.7303 37.7086C78.7303 36.7916 77.9869 36.0481 77.0698 36.0481C76.1527 36.0481 75.4093 36.7916 75.4093 37.7086C75.4093 38.6257 76.1527 39.3691 77.0698 39.3691Z" fill="#DFF4E8"/>
<path d="M68.7125 65.1444C68.7125 65.1444 73.4264 70.5132 75.0676 76.0858C76.7508 81.7973 76.9194 88.9552 75.2008 92.4858C73.4583 96.0778 66.0555 97.7896 60.4078 97.9968C54.76 98.2041 48.175 96.44 46.0452 93.4071C43.9383 90.4118 41.0467 77.8943 50.373 65.7082C57.4068 64.985 68.7125 65.1444 68.7125 65.1444Z" fill="#FFEFCA"/>
<path d="M85.9291 78.4228C85.9291 78.4228 85.3209 83.6161 84.6125 85.3165C84.0237 86.7276 80.9499 88.1637 76.4057 88.1637C71.8616 88.1637 68.9266 87.0681 68.3014 85.5329C67.6761 83.9976 66.6956 78.4205 66.6956 78.4205L85.9291 78.4228Z" fill="#F2A96D"/>
<path d="M76.4126 81.6333C81.9767 81.6333 86.4873 79.8048 86.4873 77.5492C86.4873 75.2937 81.9767 73.4652 76.4126 73.4652C70.8486 73.4652 66.338 75.2937 66.338 77.5492C66.338 79.8048 70.8486 81.6333 76.4126 81.6333Z" fill="#FFC38D"/>
<path d="M76.4126 79.8486C81.1099 79.8486 84.9178 78.6641 84.9178 77.203C84.9178 75.7419 81.1099 74.5574 76.4126 74.5574C71.7153 74.5574 67.9073 75.7419 67.9073 77.203C67.9073 78.6641 71.7153 79.8486 76.4126 79.8486Z" fill="#F2A96D"/>
<path d="M71.5508 95.3068C71.5508 95.3068 71.2615 97.4798 71.11 98.8487C70.9585 100.218 70.3663 102.014 68.7275 101.924C67.0886 101.834 66.1 97.7668 65.9326 96.1154C68.2263 94.5039 71.5508 95.3068 71.5508 95.3068Z" fill="#FFEFCA"/>
<path d="M54.2817 95.0562C54.2817 95.0562 53.9924 97.2292 53.841 98.5982C53.6895 99.9671 53.0973 101.763 51.4573 101.673C49.8173 101.583 48.831 97.5174 48.6636 95.8648C50.9573 94.2533 54.2817 95.0562 54.2817 95.0562Z" fill="#FFEFCA"/>
<path d="M68.0657 40.3611L65.7504 39.8008C64.7538 39.5604 64.3279 41.0968 65.3267 41.3383L67.6421 41.8986C68.6386 42.1389 69.0645 40.6025 68.0657 40.3611Z" fill="#7C5E52"/>
<path d="M53.3547 37.9933L50.9779 37.8396C49.9529 37.7735 49.9529 39.368 50.9779 39.434L53.3547 39.5878C54.3797 39.6538 54.3797 38.0594 53.3547 37.9933Z" fill="#7C5E52"/>
<path d="M52.7032 54.8945C54.1394 54.9206 55.8785 54.1656 56.5288 52.8171H55.9092C56.3488 53.5938 56.8636 54.4218 57.7007 54.8159C58.428 55.1664 59.2505 55.2676 60.0411 55.104C60.4898 54.9992 60.2996 54.3068 59.8498 54.4127C59.1968 54.5424 58.519 54.443 57.9307 54.1314C57.2759 53.7772 56.883 53.0802 56.5288 52.455C56.4024 52.234 56.0277 52.209 55.9092 52.455C55.3637 53.587 53.907 54.1986 52.7032 54.177C52.242 54.1678 52.242 54.8853 52.7032 54.8945Z" fill="#7C5E52"/>
<path d="M49.6555 52.2955C49.7325 51.357 49.5234 50.4171 49.0557 49.5998C48.588 48.7824 47.8836 48.126 47.0354 47.7169C46.1872 47.3077 45.235 47.1652 44.3042 47.308C43.3734 47.4507 42.5077 47.8722 41.8211 48.5167C41.4794 51.0223 41.6149 53.4686 42.1981 55.6234C42.8631 56.1274 43.6514 56.4436 44.4804 56.5388C45.3095 56.6341 46.1489 56.505 46.9109 56.1649C47.673 55.8248 48.3298 55.2863 48.8126 54.6057C49.2953 53.925 49.5865 53.1272 49.6555 52.2955Z" fill="#F7DBAA"/>
<path d="M68.265 58.4967C70.8395 58.4967 72.9265 56.4097 72.9265 53.8353C72.9265 51.2608 70.8395 49.1738 68.265 49.1738C65.6905 49.1738 63.6035 51.2608 63.6035 53.8353C63.6035 56.4097 65.6905 58.4967 68.265 58.4967Z" fill="#F7DBAA"/>
<path opacity="0.78" d="M48.1807 88.7752C48.0668 92.2557 51.7113 93.4686 56.2577 93.6337C60.8041 93.7989 64.5249 92.8525 64.6422 89.372C64.7595 85.8916 61.1697 82.9384 56.6233 82.7733C52.0768 82.6082 48.298 85.2959 48.1807 88.7752Z" fill="white"/>
<path d="M61.4316 32.8C61.4316 32.8 61.6047 22.304 64.4121 16.5458C67.2195 10.7876 73.5232 4.61934 78.023 7.95401C82.5227 11.2887 73.4264 19.3793 70.6111 22.6958C67.7957 26.0122 65.8915 32.3262 65.8915 32.3262C65.8915 32.3262 70.8036 22.4578 78.6972 18.1368C86.5908 13.8159 92.0985 16.2656 90.873 20.9692C90.0758 24.0511 80.975 27.2138 77.4194 28.3071C73.8637 29.4004 69.7307 31.7135 68.2001 33.9389C64.764 34.9411 61.4316 32.8 61.4316 32.8Z" fill="#FFEFCA"/>
<path d="M74.8363 9.77283C75.9012 10.545 71.1725 15.8374 69.4983 18.2974C68.1203 20.3246 65.1182 26.0681 64.4052 25.9211C63.6923 25.7742 65.1956 19.3258 67.1784 15.6996C69.1612 12.0734 72.866 8.34124 74.8363 9.77283Z" fill="#FFCFC5"/>
<path d="M88.1204 19.1618C88.634 20.3007 82.2164 22.4418 79.6653 23.6843C77.5651 24.7093 72.3616 28.036 71.8411 27.5771C71.3206 27.1181 75.6188 22.4953 78.9785 20.4362C82.3382 18.3771 87.1683 17.0435 88.1204 19.1618Z" fill="#FFCFC5"/>
<path d="M68.5122 65.2515C68.5122 65.2515 73.5324 69.1135 76.932 70.3435C80.3316 71.5735 83.1435 72.5859 83.1492 73.8649C83.1583 76.2167 76.2088 77.6062 68.5122 73.0506C66.7822 69.561 68.5122 65.2515 68.5122 65.2515Z" fill="#FFEFCA"/>
<path d="M77.0162 68.5508C75.6211 68.7558 73.0164 69.8549 72.4231 72.8137C71.8297 75.7726 72.3092 80.0115 72.3092 80.0115L74.587 79.8076C74.587 79.8076 74.3512 74.7681 74.8706 73.0392C75.3899 71.3104 77.6221 70.7113 78.2223 70.8104C78.8225 70.9095 80.7017 71.8639 80.7017 71.8639C80.7017 71.8639 80.7802 70.4517 80.1459 69.6225C79.5115 68.7934 77.7178 68.4472 77.0162 68.5508Z" fill="#FFC38D"/>
<path opacity="0.19" d="M71.8081 83.0842C72.272 83.8435 72.7538 84.5933 73.2534 85.3335C73.6452 85.0613 74.0381 84.7892 74.4276 84.5124C74.1998 84.2129 73.9811 83.9111 73.7682 83.6013C73.4664 83.1651 74.1668 82.7357 74.4674 83.1697C74.669 83.4623 74.8786 83.7482 75.0927 84.0307C75.987 83.3874 76.8388 82.6871 77.6427 81.934C78.0242 81.5706 78.6221 82.1355 78.2383 82.5034C77.404 83.284 76.5211 84.0109 75.5949 84.6798C76.2592 85.5031 76.9735 86.2847 77.7338 87.0202C78.1142 87.3881 77.5481 87.9837 77.1643 87.6147C76.3682 86.8442 75.6211 86.0245 74.9276 85.1604C74.5259 85.4459 74.1216 85.7295 73.7146 86.0112C73.9777 86.3881 74.2454 86.764 74.5176 87.1353C74.8319 87.5624 74.1303 87.9906 73.8183 87.5669C73.5541 87.2078 73.2948 86.8452 73.0404 86.4793C72.8821 86.5932 72.7227 86.7002 72.5655 86.8118C72.1316 87.117 71.7022 86.4155 72.1327 86.1125L72.5769 85.8028C72.0689 85.0519 71.5788 84.2903 71.1066 83.5182C70.8389 83.0637 71.5325 82.6321 71.8081 83.0842Z" fill="#7C5E52"/>
<path opacity="0.19" d="M80.5047 81.6219C80.9337 82.1708 81.3809 82.705 81.8463 83.2243C82.6402 82.5444 83.3968 81.8221 84.1127 81.0604C84.476 80.6743 85.0705 81.2415 84.7072 81.6299C83.9774 82.4032 83.2068 83.1369 82.3987 83.8279C82.8922 84.3556 83.399 84.8658 83.9191 85.3586C84.304 85.7219 83.738 86.3164 83.3496 85.9531C82.8018 85.4372 82.2745 84.9019 81.7643 84.3529C81.51 84.5579 81.2529 84.7599 80.9933 84.9588C80.5708 85.2789 80.1425 84.5762 80.5605 84.2596C80.7815 84.0921 80.999 83.9179 81.2142 83.7471C80.7268 83.1966 80.2561 82.6325 79.802 82.0547C79.4786 81.6378 80.1778 81.2108 80.5047 81.6219Z" fill="#7C5E52"/>
<path d="M48.9267 46.5065C50.1098 47.1934 51.5038 47.4224 52.8445 47.15L52.4493 46.2139C51.9446 46.5516 51.3507 46.7311 50.7435 46.7295C50.1363 46.7279 49.5434 46.5452 49.0406 46.2047C48.4894 45.838 47.9757 46.7264 48.5235 47.0897C49.1829 47.5227 49.9541 47.7543 50.743 47.7559C51.5318 47.7575 52.3041 47.5291 52.9652 47.0988C53.0683 47.0337 53.145 46.9342 53.1817 46.8179C53.2183 46.7015 53.2124 46.576 53.1651 46.4636C53.1178 46.3512 53.0321 46.2593 52.9233 46.2041C52.8146 46.149 52.6897 46.1343 52.5711 46.1626C51.4992 46.3702 50.3884 46.1795 49.4472 45.6262C48.8777 45.2959 48.3584 46.1808 48.9301 46.5111L48.9267 46.5065Z" fill="#7C5E52"/>
<path d="M65.797 47.1341C64.7206 47.4971 63.5481 47.4497 62.5045 47.0008C62.0102 46.7947 61.6708 47.5224 62.0057 47.8573C62.5631 48.4155 63.2713 48.799 64.0434 48.9608C64.8156 49.1226 65.6181 49.0558 66.3528 48.7684C66.9564 48.5235 66.6945 47.5315 66.0806 47.7798C65.521 48.0168 64.9033 48.0816 64.3067 47.9657C63.71 47.8499 63.1615 47.5587 62.7311 47.1295L62.2323 47.986C63.4531 48.4928 64.8162 48.5401 66.0692 48.1192C66.6922 47.9119 66.4257 46.9222 65.797 47.1307V47.1341Z" fill="#7C5E52"/>
<path d="M98.9589 72.5603C99.5567 71.6084 98.8638 70.0973 97.4112 69.185C95.9587 68.2728 94.2965 68.3049 93.6987 69.2567C93.1009 70.2086 93.7939 71.7197 95.2464 72.632C96.699 73.5442 98.3611 73.5121 98.9589 72.5603Z" fill="#FFCFC5"/>
<path d="M99.5742 63.4065L100.566 64.419C100.617 64.4714 100.654 64.5355 100.674 64.6057C100.694 64.6758 100.696 64.7498 100.68 64.821L99.1232 72.1771L97.8306 71.8035L98.8168 63.6639C98.827 63.581 98.8604 63.5026 98.9131 63.4378C98.9658 63.3731 99.0357 63.3244 99.1148 63.2976C99.1938 63.2707 99.2789 63.2666 99.3602 63.2859C99.4414 63.3052 99.5156 63.347 99.5742 63.4065Z" fill="#FFCFC5"/>
<path d="M29.6829 57.457C29.282 56.6962 28.0155 56.5766 26.855 57.1882L27.675 52.373C27.6876 52.2999 27.6843 52.225 27.6656 52.1533C27.6469 52.0816 27.613 52.0147 27.5663 51.9571C27.5196 51.8995 27.4612 51.8526 27.3949 51.8194C27.3286 51.7862 27.2559 51.7676 27.1819 51.7648L20.2005 51.4972C20.1283 51.4942 20.0562 51.5064 19.989 51.5328C19.9217 51.5592 19.8607 51.5994 19.8098 51.6507C19.7589 51.702 19.7192 51.7634 19.6934 51.8309C19.6675 51.8984 19.656 51.9705 19.6595 52.0427L19.9306 57.5469C19.7384 57.4255 19.5351 57.3226 19.3235 57.2394C18.1015 56.76 16.8567 57.0208 16.5424 57.8214C16.228 58.622 16.9649 59.6584 18.1869 60.1379C19.4089 60.6174 20.6538 60.3566 20.9669 59.5559C21.0066 59.4547 21.03 59.3478 21.0364 59.2393V59.1721V59.1653L21.2243 53.4868L25.986 53.3L25.3847 58.8965C25.3678 58.9809 25.3587 59.0667 25.3574 59.1528C25.3538 59.3345 25.3957 59.5141 25.4792 59.6755C25.8801 60.4352 27.1466 60.5559 28.3071 59.9432C29.4676 59.3304 30.0838 58.2166 29.6829 57.457Z" fill="#B9EADB"/>
<path d="M72.7203 39.3429C72.2511 39.294 72.0837 38.0788 72.2648 37.6266C72.4823 37.0572 73.7328 37.2963 73.8592 37.8612C73.9857 38.4261 73.1896 39.393 72.7203 39.3429Z" fill="#FFCFC5"/>
<path d="M72.775 39.5502C72.6702 39.0946 73.7658 38.5389 74.2498 38.5571C74.8546 38.581 75.0379 39.8406 74.5459 40.1515C74.0539 40.4624 72.8775 40.0103 72.775 39.5502Z" fill="#FFCFC5"/>
<path d="M72.5939 39.6675C72.9948 39.4192 73.8717 40.2768 74.0118 40.7415C74.1849 41.3212 73.0529 41.902 72.603 41.5387C72.1531 41.1754 72.193 39.9158 72.5939 39.6675Z" fill="#FFCFC5"/>
<path d="M72.4253 39.5354C72.7898 39.8349 72.2636 40.9419 71.8684 41.2244C71.3764 41.5763 70.4596 40.6937 70.66 40.1493C70.8605 39.6049 72.0609 39.237 72.4253 39.5354Z" fill="#FFCFC5"/>
<path d="M72.4949 39.3338C72.3309 39.7757 71.1123 39.6356 70.7171 39.3543C70.2251 39.0024 70.7638 37.8498 71.3434 37.8624C71.9231 37.8749 72.6611 38.8919 72.4949 39.3338Z" fill="#FFCFC5"/>
<path d="M72.6018 40.131C72.9591 40.131 73.2487 39.8414 73.2487 39.4841C73.2487 39.1269 72.9591 38.8372 72.6018 38.8372C72.2446 38.8372 71.955 39.1269 71.955 39.4841C71.955 39.8414 72.2446 40.131 72.6018 40.131Z" fill="#DCFFF9"/>
</svg>
